<?xml version="1.0" encoding="UTF-8"?><svg id="Layer_1" xmlns="http://www.w3.org/2000/svg" viewBox="0 0 284.66 56.98"><defs><style>.cls-1{fill:#fff;}.cls-1,.cls-2{stroke-width:0px;}.cls-2{fill:#cbcfcb;}</style></defs><path class="cls-1" d="M5.59,52.29c-.86-6.37-1.37-12.64-1.51-18.81-.14-6.18-.05-12.49.29-18.96-.38.14-.73.28-1.04.4-.31.12-.64.28-.97.47-.34-1.39-.66-2.75-.97-4.09-.31-1.34-.59-2.7-.83-4.09,3.17-1.77,6.43-3.23,9.79-4.38,3.36-1.15,6.84-1.75,10.44-1.8,2.69-.1,5.38.31,8.06,1.22,2.69.91,5.12,2.2,7.31,3.87,2.18,1.67,4,3.69,5.44,6.06,1.44,2.37,2.28,4.94,2.52,7.71.14,2.73-.41,5.21-1.66,7.46-1.25,2.25-2.89,4.16-4.93,5.74-2.04,1.58-4.33,2.77-6.88,3.59-2.54.81-5.06,1.17-7.56,1.08-1.39-.05-2.77-.13-4.14-.25-1.37-.12-2.75-.3-4.14-.54v.86l.43,6.26c.1,1.54.22,3.08.36,4.64.14,1.56.5,3.04,1.08,4.43-3.74-.14-7.44-.43-11.09-.86ZM14.45,28.03c1.1.29,2.24.52,3.42.71,1.18.19,2.34.29,3.49.29,1.34.1,2.7-.05,4.07-.43,1.37-.38,2.6-.97,3.71-1.75,1.1-.79,1.99-1.76,2.66-2.93.67-1.17.96-2.49.86-3.97,0-1.52-.37-2.88-1.11-4.07-.74-1.19-1.68-2.19-2.82-3-1.14-.81-2.43-1.41-3.86-1.79s-2.81-.55-4.14-.5c-1-.05-2.01.02-3.04.21-1.02.19-2.01.41-2.96.64-.1,2.86-.18,5.62-.25,8.29-.07,2.67-.08,5.43-.04,8.29Z"/><path class="cls-2" d="M17.44,53.68l-.78-.03c-3.74-.14-7.49-.44-11.13-.86l-.38-.05-.05-.38c-.86-6.35-1.37-12.7-1.52-18.87-.14-5.92-.05-12.05.25-18.23l-.33.12c-.28.11-.59.25-.9.43l-.58.33-.16-.65c-.34-1.39-.66-2.75-.97-4.1-.31-1.34-.59-2.73-.83-4.12l-.06-.35.31-.17c3.18-1.78,6.51-3.26,9.87-4.42,3.39-1.16,6.96-1.77,10.59-1.82,2.73-.09,5.5.32,8.23,1.25,2.73.92,5.23,2.25,7.45,3.95,2.22,1.71,4.09,3.79,5.56,6.2,1.47,2.42,2.34,5.09,2.59,7.93.15,2.83-.43,5.43-1.72,7.75-1.28,2.3-2.98,4.28-5.06,5.89-2.08,1.61-4.44,2.84-7.03,3.67-2.59.83-5.19,1.19-7.73,1.1-1.38-.05-2.78-.13-4.16-.25-1.18-.1-2.39-.25-3.6-.45v.27l.43,6.23c.09,1.51.21,3.06.36,4.63.14,1.5.49,2.94,1.04,4.28l.3.72ZM6.04,51.84c3.25.37,6.57.64,9.91.78-.43-1.22-.72-2.52-.84-3.85-.15-1.58-.27-3.15-.36-4.66l-.43-6.26v-1.49s.58.1.58.1c1.37.24,2.75.42,4.1.53,1.36.12,2.75.2,4.11.25,2.43.09,4.91-.26,7.39-1.05,2.48-.79,4.74-1.97,6.72-3.51,1.98-1.53,3.59-3.41,4.8-5.58,1.2-2.15,1.73-4.57,1.59-7.19-.23-2.67-1.06-5.19-2.45-7.48-1.4-2.3-3.19-4.29-5.31-5.92-2.13-1.63-4.54-2.91-7.16-3.8-2.62-.88-5.27-1.28-7.89-1.19-3.54.05-7,.64-10.3,1.77-3.2,1.09-6.36,2.5-9.4,4.17.22,1.26.48,2.5.76,3.71.27,1.14.54,2.29.82,3.47.16-.07.31-.14.46-.2l1.76-.66-.04.76c-.33,6.42-.43,12.78-.29,18.92.14,6,.63,12.18,1.46,18.37ZM22.17,29.56c-.28,0-.56,0-.84-.03h-.02c-1.13,0-2.33-.1-3.51-.29-1.18-.19-2.35-.44-3.47-.72l-.37-.1v-.38c-.05-2.83-.04-5.63.03-8.31.07-2.67.16-5.43.25-8.29v-.38s.38-.09.38-.09c.95-.24,1.96-.46,2.99-.65,1.05-.2,2.11-.27,3.15-.22,1.34-.05,2.78.12,4.25.52,1.48.4,2.83,1.02,4.02,1.86,1.19.84,2.19,1.9,2.96,3.14.78,1.27,1.18,2.72,1.18,4.33.1,1.54-.21,2.97-.93,4.22-.71,1.23-1.65,2.26-2.81,3.09-1.15.82-2.45,1.43-3.86,1.83-1.13.32-2.27.48-3.39.48ZM14.94,27.64c.97.24,1.98.45,3.01.61,1.14.19,2.29.28,3.41.28,1.32.09,2.63-.05,3.93-.41,1.3-.36,2.5-.93,3.55-1.68,1.04-.74,1.89-1.67,2.52-2.77.62-1.07.89-2.31.8-3.68,0-1.45-.35-2.74-1.03-3.84-.7-1.13-1.6-2.09-2.69-2.86-1.09-.77-2.33-1.35-3.7-1.71-1.37-.37-2.72-.53-4-.48-1-.05-1.98.02-2.96.21-.88.17-1.75.35-2.57.55-.09,2.72-.17,5.36-.24,7.91-.07,2.54-.08,5.19-.04,7.88Z"/><path class="cls-1" d="M58.44,35.44v.29c.1,1.34.18,2.69.25,4.03.07,1.34.18,2.71.32,4.1.14,1.54.28,3.08.4,4.64.12,1.56.37,3.08.76,4.57-1.87-.19-3.73-.36-5.58-.5-1.85-.14-3.68-.41-5.51-.79-.05-.1-.07-.43-.07-1.01-.53-3.74-.86-7.5-1.01-11.27-.14-3.77-.22-7.52-.22-11.27v-11.3c0-1.92-.04-3.82-.11-5.69-.07-1.87-.16-3.74-.25-5.62,2.13-.91,4.24-1.74,6.32-2.48,2.08-.74,4.22-1.45,6.42-2.12-.67,3.46-1.15,7.1-1.44,10.94-.29,3.84-.48,7.49-.58,10.94,2.89-.14,5.77-.22,8.66-.22,1.44,0,2.89.01,4.33.04,1.44.02,2.89.06,4.33.11v-5.54h-.07c-.05-2.5-.13-4.97-.25-7.42-.12-2.45-.25-4.97-.4-7.56,1.83.14,3.63.3,5.41.47,1.78.17,3.56.42,5.34.76-.1.14-.12.3-.07.47.05.17.07.32.07.47.19,3.89.33,7.73.4,11.52.07,3.79.11,7.63.11,11.52s-.04,7.6-.13,11.41c-.08,3.82-.21,7.67-.38,11.56-.05.1-.07.29-.07.58s-.02.48-.07.58c-1.78.34-3.54.6-5.29.79-1.75.19-3.54.36-5.36.5.34-3.7.56-7.21.68-10.55.12-3.34.2-6.88.25-10.62h-.07v-.72c-2.93-.05-5.83-.06-8.71-.04-2.88.02-5.76.06-8.64.11v4.32h.22Z"/><path class="cls-2" d="M60.83,53.65l-.72-.07c-1.84-.19-3.71-.36-5.57-.5-1.86-.15-3.73-.41-5.57-.8l-.24-.05-.11-.22c-.08-.16-.12-.41-.12-1.23-.52-3.66-.86-7.47-1.01-11.25-.14-3.76-.22-7.56-.22-11.29v-11.3c0-1.91-.04-3.82-.11-5.67-.07-1.87-.16-3.74-.25-5.61l-.02-.35.32-.14c2.13-.91,4.26-1.75,6.35-2.5,2.07-.74,4.24-1.46,6.44-2.13l.8-.24-.16.82c-.66,3.41-1.15,7.07-1.43,10.89-.27,3.62-.46,7.11-.56,10.38,4.15-.19,8.33-.22,12.49-.15,1.27.02,2.55.05,3.82.09v-4.59l-.07-.43c-.05-2.47-.13-4.96-.25-7.4-.12-2.45-.25-4.97-.4-7.56l-.03-.57.57.04c1.83.14,3.64.3,5.42.47,1.79.17,3.6.43,5.39.76l.75.14-.42.63c.06.27.08.47.08.66.19,3.87.33,7.75.4,11.51.07,3.78.11,7.66.11,11.53s-.04,7.58-.13,11.42c-.08,3.81-.21,7.7-.38,11.57l-.05.2s0,0,0,0c0,0-.02.09-.02.35,0,.38-.04.62-.12.8l-.11.22-.24.05c-1.78.34-3.58.6-5.33.8-1.77.19-3.58.36-5.38.51l-.59.05.05-.59c.33-3.67.56-7.21.68-10.52.11-3.2.2-6.61.25-10.14l-.07-.69c-2.77-.04-5.53-.05-8.21-.03-2.71.02-5.43.06-8.14.1v3.33h.22v.79c.09,1.31.18,2.66.25,4.01.07,1.32.18,2.7.32,4.08.14,1.54.28,3.09.4,4.66.12,1.52.37,3.03.74,4.49l.18.7ZM49.52,51.36c1.69.34,3.4.58,5.11.71,1.63.13,3.27.27,4.89.43-.3-1.29-.5-2.62-.6-3.96-.12-1.56-.25-3.1-.4-4.64-.14-1.39-.25-2.78-.33-4.12-.07-1.28-.15-2.56-.24-3.85h-.23v-5.31h.49c2.88-.06,5.76-.09,8.64-.12,2.85-.02,5.78-.01,8.72.04h.49s0,.72,0,.72l.07.51c-.05,3.71-.13,7.29-.25,10.63-.11,3.15-.33,6.51-.63,9.98,1.6-.13,3.2-.28,4.76-.46,1.62-.18,3.27-.42,4.92-.72,0-.04,0-.09,0-.15,0-.3.02-.52.08-.68.17-3.83.29-7.69.37-11.46.08-3.84.13-7.67.13-11.4s-.04-7.74-.11-11.51c-.07-3.75-.2-7.62-.4-11.5,0-.12-.02-.23-.05-.36-.02-.07-.03-.14-.04-.2-1.6-.29-3.21-.51-4.8-.66-1.59-.15-3.2-.29-4.83-.42.13,2.39.25,4.72.37,6.99.11,2.29.19,4.62.24,6.94h.01l.07.5v6.06l-.52-.02c-1.44-.05-2.88-.08-4.32-.11-4.31-.07-8.66-.03-12.96.18l-.54.03v-.54c.11-3.44.3-7.13.59-10.97.27-3.55.7-6.97,1.29-10.18-1.91.6-3.8,1.23-5.61,1.87-1.96.7-3.97,1.49-5.98,2.34.09,1.76.17,3.52.23,5.27.07,1.86.11,3.78.11,5.71v11.3c0,3.72.07,7.5.22,11.25.14,3.74.48,7.52,1,11.22,0,.32,0,.52.02.66Z"/><path class="cls-1" d="M89.69,28.6c-.05-2.5.22-4.99.79-7.49.58-2.5,1.45-4.84,2.63-7.02,1.18-2.18,2.62-4.18,4.32-5.98,1.7-1.8,3.68-3.28,5.94-4.43l.07.14s.05-.05,0-.14c1.39-.86,2.89-1.48,4.5-1.84,1.61-.36,3.25-.54,4.93-.54,3.5-.1,6.77.62,9.79,2.16,3.02,1.54,5.63,3.58,7.81,6.12,2.18,2.54,3.85,5.44,5,8.68,1.15,3.24,1.61,6.54,1.37,9.9-.05,3.17-.66,6.32-1.84,9.47-1.18,3.14-2.81,5.98-4.9,8.5-2.09,2.52-4.56,4.57-7.42,6.16-2.86,1.58-5.96,2.4-9.32,2.45-3.36-.05-6.47-.84-9.32-2.38-2.86-1.54-5.34-3.53-7.45-5.98-2.11-2.45-3.78-5.22-5-8.32-1.22-3.1-1.86-6.25-1.91-9.47ZM105.16,14.56c-1.09,1.3-1.94,2.8-2.57,4.5-.63,1.7-1.05,3.48-1.27,5.33-.22,1.85-.28,3.52-.18,5-.05,1.78.17,3.6.65,5.47.48,1.87,1.23,3.59,2.25,5.15,1.01,1.56,2.29,2.84,3.84,3.85,1.55,1.01,3.33,1.51,5.36,1.51,2.12-.05,3.96-.61,5.5-1.69,1.54-1.08,2.82-2.44,3.84-4.07,1.01-1.63,1.75-3.42,2.21-5.36.46-1.94.66-3.83.62-5.65.1-1.87-.07-3.83-.51-5.87-.43-2.04-1.16-3.92-2.17-5.65-1.01-1.73-2.32-3.14-3.91-4.25-1.59-1.1-3.5-1.63-5.72-1.58-.68-.05-1.34.01-1.99.18-.65.17-1.29.37-1.92.61v-.07c-1.59.43-2.93,1.3-4.02,2.59ZM103.37,3.69v-.22s.02.1.07.14l-.07.07ZM109.27,12.04s.01.08.04.11c.02.02.04.06.04.11,0-.05-.01-.08-.04-.11-.02-.02-.04-.06-.04-.11Z"/><path class="cls-2" d="M113.38,55.23c-3.44-.05-6.65-.87-9.57-2.44-2.9-1.56-5.45-3.61-7.59-6.09-2.14-2.48-3.85-5.32-5.09-8.46-1.24-3.14-1.9-6.38-1.94-9.64-.05-2.52.22-5.08.8-7.61.58-2.53,1.48-4.93,2.67-7.15,1.19-2.21,2.67-4.26,4.4-6.08,1.72-1.81,3.74-3.33,6-4.49l.02-.02h0s.03-.01.05-.02l.45-.23h0c1.32-.76,2.74-1.31,4.24-1.65,1.64-.37,3.33-.55,5.04-.55,3.55-.1,6.93.65,10.02,2.21,3.07,1.56,5.75,3.66,7.96,6.24,2.21,2.58,3.93,5.55,5.1,8.83,1.17,3.29,1.64,6.69,1.4,10.1-.05,3.18-.68,6.42-1.87,9.61-1.19,3.18-2.87,6.09-4.98,8.64-2.12,2.56-4.66,4.67-7.56,6.27-2.92,1.62-6.13,2.46-9.56,2.51ZM102.87,4.52c-1.9,1.06-3.61,2.38-5.08,3.94-1.67,1.76-3.09,3.73-4.24,5.87-1.15,2.13-2.02,4.45-2.58,6.9-.56,2.45-.83,4.92-.78,7.37h0c.05,3.14.68,6.27,1.87,9.29,1.2,3.03,2.85,5.78,4.92,8.17,2.06,2.39,4.52,4.36,7.31,5.86,2.77,1.49,5.83,2.27,9.09,2.32,3.25-.05,6.3-.85,9.07-2.39,2.79-1.55,5.24-3.58,7.27-6.04,2.04-2.46,3.66-5.27,4.81-8.35,1.15-3.08,1.76-6.21,1.8-9.3.23-3.3-.22-6.57-1.34-9.72-1.12-3.17-2.78-6.03-4.91-8.52-2.13-2.48-4.71-4.5-7.66-6-2.94-1.49-6.14-2.2-9.55-2.11-1.65,0-3.27.18-4.84.53-1.45.32-2.83.87-4.1,1.62-.01.04-.03.08-.06.12l-.15.24h-.32s-.56.58-.56.58v-.37ZM113.24,45.87c-2.13,0-4.02-.54-5.64-1.59-1.6-1.04-2.94-2.39-3.99-4-1.04-1.6-1.82-3.38-2.31-5.3-.49-1.91-.72-3.8-.67-5.61-.1-1.46-.04-3.17.18-5.05.22-1.88.66-3.71,1.3-5.44.65-1.75,1.54-3.32,2.66-4.65,1.15-1.37,2.59-2.3,4.27-2.75l.63-.17h0c.43-.13.86-.26,1.29-.37.7-.18,1.42-.25,2.15-.19,2.26-.06,4.3.51,5.97,1.67,1.65,1.14,3.01,2.62,4.06,4.41,1.04,1.77,1.79,3.72,2.23,5.8.44,2.07.61,4.09.52,6,.05,1.82-.16,3.77-.63,5.74-.47,1.99-1.23,3.84-2.27,5.51-1.05,1.68-2.38,3.1-3.98,4.21-1.62,1.13-3.57,1.73-5.78,1.78ZM108.67,12.65c-1.22.45-2.27,1.19-3.14,2.23h0c-1.04,1.24-1.88,2.71-2.48,4.35-.61,1.66-1.03,3.41-1.24,5.21-.21,1.81-.27,3.47-.18,4.91-.05,1.77.17,3.56.64,5.38.47,1.81,1.2,3.5,2.18,5,.97,1.49,2.21,2.74,3.69,3.71,1.46.95,3.17,1.43,5.09,1.43,2-.04,3.76-.58,5.22-1.6,1.48-1.04,2.73-2.36,3.7-3.92.98-1.58,1.7-3.33,2.15-5.21.45-1.89.65-3.75.6-5.52.09-1.86-.07-3.79-.5-5.78-.42-1.98-1.13-3.83-2.11-5.5-.97-1.66-2.24-3.03-3.77-4.09-1.5-1.04-3.33-1.55-5.43-1.49-.66-.04-1.28.01-1.88.16-.63.16-1.26.36-1.87.59l-.68.26v-.11ZM109.67,11.81s.02.02.03.03c0-.01-.02-.02-.03-.04,0,0-.02-.02-.02-.03,0,0,.02.02.02.03Z"/><path class="cls-1" d="M142.53,52.14c-.72-6.38-1.13-12.68-1.22-18.9-.1-6.22.05-12.54.43-18.97l-.36.14c-.24.1-.5.22-.79.36-.29.14-.55.31-.79.5-.38-1.34-.71-2.7-.97-4.07-.26-1.37-.52-2.75-.76-4.14,3.07-1.82,6.32-3.35,9.74-4.57,3.42-1.22,6.94-1.86,10.55-1.91,2.6-.14,5.2.2,7.8,1.04,2.6.84,4.97,2.06,7.12,3.67,2.14,1.61,3.91,3.55,5.31,5.83,1.4,2.28,2.19,4.79,2.38,7.52.19,1.92-.05,3.71-.72,5.36-.68,1.66-1.62,3.16-2.82,4.5-1.21,1.34-2.6,2.52-4.2,3.53s-3.21,1.82-4.85,2.45c2.94,1.78,5.7,3.79,8.28,6.05,2.58,2.26,4.83,4.82,6.75,7.7-1.68,1.3-3.3,2.62-4.87,3.96-1.57,1.34-3.17,2.66-4.81,3.96l-.14-.36c-1.16-2.16-2.47-4.24-3.94-6.23-1.47-1.99-3.17-3.78-5.1-5.36-1.69-1.63-3.53-3-5.53-4.1-2-1.1-4.09-2.04-6.26-2.81l-.22-.07-.8-.29c.1,2.74.31,5.44.65,8.1.34,2.66.86,5.29,1.58,7.88-1.92-.1-3.83-.19-5.72-.29-1.9-.1-3.81-.26-5.72-.5ZM151.75,29.03c.29,0,.59-.01.9-.04.31-.02.61-.01.9.04,1.58.05,3.31-.05,5.18-.29,1.87-.24,3.6-.72,5.18-1.44,1.58-.72,2.92-1.72,4-2.99,1.08-1.27,1.62-2.92,1.62-4.93,0-1.34-.31-2.57-.93-3.67-.62-1.1-1.42-2.04-2.4-2.81-.98-.77-2.09-1.36-3.33-1.76-1.24-.41-2.49-.59-3.73-.54-1.05-.05-2.1.01-3.15.18-1.05.17-2.1.35-3.16.54-.14.05-.26.08-.36.11-.1.02-.21.06-.36.11-.12,2.93-.21,5.84-.27,8.75-.06,2.9-.09,5.82-.09,8.75Z"/><path class="cls-2" d="M173.53,56.98l-.39-.98c-1.12-2.08-2.43-4.15-3.88-6.12-1.44-1.95-3.13-3.73-5.02-5.27-1.68-1.62-3.5-2.97-5.46-4.05-1.97-1.09-4.05-2.02-6.18-2.77l-.32-.11c.11,2.46.31,4.92.62,7.31.33,2.62.86,5.25,1.57,7.81l.19.67-6.42-.32c-1.91-.1-3.85-.27-5.76-.51l-.39-.05-.04-.39c-.72-6.37-1.13-12.75-1.23-18.95-.09-5.94.04-12.06.39-18.21-.12.06-.25.12-.38.18-.25.13-.49.28-.7.45l-.59.47-.21-.72c-.39-1.35-.72-2.73-.98-4.11-.27-1.37-.52-2.75-.76-4.15l-.06-.34.3-.18c3.09-1.83,6.39-3.38,9.83-4.61,3.46-1.24,7.06-1.89,10.71-1.94,2.63-.15,5.32.21,7.96,1.07,2.64.85,5.09,2.11,7.27,3.75,2.18,1.64,4.01,3.65,5.44,5.97,1.43,2.34,2.26,4.95,2.46,7.75.2,1.98-.06,3.86-.76,5.59-.7,1.71-1.68,3.27-2.91,4.65-1.23,1.37-2.68,2.59-4.3,3.62-1.32.83-2.66,1.54-4.01,2.12,2.65,1.66,5.17,3.53,7.51,5.58,2.6,2.27,4.9,4.9,6.84,7.8l.26.39-.37.29c-1.67,1.29-3.3,2.61-4.85,3.94-1.59,1.36-3.21,2.7-4.83,3.97l-.52.41ZM151.23,36.23l1.69.61c2.19.78,4.33,1.73,6.34,2.84,2.03,1.12,3.93,2.53,5.64,4.18,1.92,1.57,3.66,3.41,5.16,5.43,1.43,1.94,2.74,3.99,3.88,6.09,1.44-1.15,2.88-2.34,4.3-3.55,1.45-1.24,2.97-2.48,4.52-3.69-1.83-2.68-3.99-5.1-6.41-7.22-2.54-2.23-5.31-4.24-8.21-6l-.88-.53.96-.36c1.6-.61,3.2-1.41,4.76-2.4,1.55-.98,2.92-2.14,4.09-3.44,1.16-1.29,2.08-2.76,2.73-4.35.64-1.57.87-3.3.69-5.13-.19-2.66-.97-5.11-2.31-7.31-1.36-2.22-3.1-4.13-5.19-5.69-2.09-1.57-4.44-2.78-6.97-3.6-2.53-.82-5.09-1.16-7.62-1.02-3.56.05-7.06.68-10.41,1.88-3.27,1.17-6.41,2.63-9.36,4.36.22,1.27.45,2.54.7,3.79.22,1.12.48,2.25.78,3.36.09-.05.18-.1.27-.15.3-.15.58-.28.83-.38l1.09-.44-.05.79c-.38,6.39-.53,12.76-.43,18.93.09,6.04.49,12.25,1.18,18.46,1.76.21,3.54.36,5.3.45l5.04.25c-.63-2.4-1.11-4.84-1.42-7.29-.34-2.66-.56-5.4-.65-8.15l-.03-.74ZM154.35,29.54c-.28,0-.55,0-.82-.01-.31-.05-.58-.06-.85-.04-.32.03-.64.04-.94.04h-.5v-.5c0-2.96.03-5.9.09-8.76.06-2.89.15-5.84.27-8.76v-.35s.34-.11.34-.11c.16-.05.29-.09.39-.12.09-.02.2-.05.33-.1,1.12-.21,2.18-.39,3.24-.56,1.08-.17,2.17-.24,3.26-.19,1.26-.05,2.57.14,3.86.56,1.29.42,2.46,1.05,3.49,1.85,1.03.81,1.88,1.8,2.53,2.96.66,1.18,1,2.49,1,3.92,0,2.13-.58,3.9-1.74,5.26-1.12,1.32-2.53,2.37-4.17,3.12-1.62.74-3.42,1.24-5.33,1.48-1.57.2-3.06.3-4.45.3ZM152.95,28.48c.23,0,.46.02.68.05,1.49.04,3.2-.06,5.04-.29,1.81-.23,3.51-.7,5.04-1.4,1.51-.69,2.8-1.65,3.82-2.86,1-1.17,1.5-2.72,1.5-4.61,0-1.25-.29-2.4-.87-3.43-.59-1.04-1.35-1.94-2.28-2.66-.93-.73-2-1.29-3.18-1.68-1.18-.39-2.38-.56-3.55-.52-1.06-.04-2.08.01-3.09.17-1.05.17-2.1.35-3.15.54-.09.04-.22.07-.32.1-.11,2.79-.2,5.61-.25,8.38-.06,2.68-.09,5.45-.09,8.23.12,0,.24-.01.36-.02.12,0,.23-.01.34-.01Z"/><path class="cls-1" d="M185.52,5.56c2.16-.91,4.33-1.76,6.52-2.56,2.18-.79,4.38-1.57,6.59-2.34.05.24.05.49,0,.76-.05.26-.1.52-.14.76-.34,3.17-.67,6.3-1.01,9.4-.34,3.1-.67,6.23-1.01,9.4-.14,1.44-.24,2.87-.29,4.28-.05,1.42-.07,2.84-.07,4.28.1,1.82.18,3.64.25,5.44s.44,3.54,1.12,5.22c.67,1.54,1.76,2.68,3.28,3.42,1.51.74,3.04,1.12,4.57,1.12.96.05,1.87-.08,2.74-.4.86-.31,1.7-.71,2.52-1.19.53-.29.96-.67,1.3-1.15.34-.48.65-.98.94-1.51.72-1.82,1.12-3.68,1.19-5.58.07-1.9.13-3.8.18-5.72v-4.03c-.14-3.74-.32-7.42-.54-11.02-.22-3.6-.56-7.22-1.04-10.87,0-.14-.01-.29-.04-.43-.02-.14-.04-.29-.04-.43,1.87.14,3.73.31,5.59.5,1.86.19,3.72.46,5.58.79-.1.19-.12.37-.07.54.05.17.07.35.07.54.19,3.17.34,6.31.46,9.43.12,3.12.25,6.26.39,9.43,0,1.68.02,3.35.07,5,.05,1.66.02,3.32-.07,5-.1,1.82-.24,3.62-.43,5.4-.19,1.78-.72,3.48-1.58,5.11-.72,1.63-1.67,3.08-2.87,4.36-1.2,1.27-2.54,2.34-4.02,3.2-1.48.86-3.07,1.52-4.77,1.98-1.7.46-3.41.68-5.13.68-2.58.05-5.09-.34-7.53-1.15-2.44-.82-4.66-2.04-6.67-3.67-.91-.82-1.75-1.7-2.51-2.66-.76-.96-1.41-1.99-1.94-3.1-.72-1.44-1.16-2.95-1.33-4.54-.17-1.58-.28-3.17-.32-4.75-.1-1.68-.12-3.34-.07-4.97.05-1.63.09-3.29.14-4.97.05-.34.08-.65.11-.94.02-.29.04-.58.04-.86v-1.8c.14-2.59.24-5.16.29-7.7.05-2.54-.1-5.11-.43-7.7Z"/><path class="cls-2" d="M205.32,54.88c-2.47,0-4.92-.4-7.26-1.18-2.49-.83-4.79-2.1-6.83-3.76-.95-.85-1.81-1.77-2.59-2.74-.79-.99-1.46-2.06-2-3.19-.74-1.48-1.2-3.06-1.37-4.7-.17-1.58-.28-3.2-.33-4.79-.1-1.67-.12-3.35-.07-5l.14-4.97c.05-.38.09-.69.11-.97.02-.27.03-.55.03-.82v-1.8c.14-2.59.24-5.18.29-7.71.05-2.5-.1-5.07-.43-7.63l-.05-.38.35-.15c2.18-.92,4.38-1.78,6.54-2.57,2.19-.79,4.38-1.57,6.6-2.34l.54-.19.11.57c.06.3.06.62,0,.94l-.15.76c-.33,3.13-.67,6.26-1,9.35-.34,3.1-.67,6.23-1.01,9.4-.14,1.43-.24,2.86-.29,4.25-.05,1.39-.07,2.82-.07,4.27.09,1.8.18,3.61.25,5.42.07,1.74.43,3.44,1.08,5.05.62,1.42,1.62,2.46,3.03,3.16,1.43.71,2.9,1.06,4.35,1.06.91.05,1.77-.08,2.57-.37.83-.3,1.65-.69,2.44-1.15.48-.26.85-.59,1.14-1.01.33-.46.63-.96.91-1.46.67-1.71,1.06-3.53,1.13-5.36.07-1.89.13-3.8.18-5.72v-4.02c-.14-3.72-.33-7.42-.54-10.99-.21-3.56-.56-7.21-1.04-10.84,0-.18-.01-.3-.03-.42-.03-.17-.04-.34-.04-.51v-.54l.54.04c1.83.14,3.71.31,5.6.5,1.86.19,3.75.46,5.62.8l.66.12-.3.6c-.04.08-.05.14-.04.18.06.22.09.44.09.67.19,3.11.34,6.29.46,9.41.12,3.12.25,6.26.39,9.43,0,1.7.02,3.38.07,5.01.05,1.67.02,3.36-.07,5.05-.1,1.83-.24,3.65-.43,5.43-.2,1.83-.75,3.61-1.63,5.29-.72,1.64-1.72,3.16-2.95,4.47-1.22,1.3-2.61,2.41-4.13,3.29-1.51.88-3.16,1.56-4.89,2.03-1.73.47-3.5.7-5.26.7-.14,0-.28,0-.43,0ZM186.06,5.87c.3,2.48.43,4.97.39,7.4-.05,2.55-.15,5.14-.29,7.72v1.77c0,.3-.01.6-.04.9-.03.3-.06.62-.11.96l-.14,4.91c-.05,1.61-.02,3.27.07,4.92.05,1.58.16,3.17.32,4.73.16,1.51.59,2.98,1.28,4.37.51,1.07,1.14,2.08,1.88,3.01.74.93,1.57,1.81,2.45,2.6,1.93,1.57,4.12,2.77,6.5,3.57,2.37.79,4.84,1.17,7.36,1.13,1.68,0,3.36-.22,5.01-.67,1.65-.44,3.21-1.09,4.65-1.93,1.43-.83,2.75-1.88,3.91-3.11,1.15-1.22,2.08-2.64,2.78-4.21.84-1.6,1.36-3.26,1.54-4.96.19-1.75.33-3.56.43-5.37.09-1.66.12-3.33.07-4.96-.05-1.64-.07-3.33-.07-5.02-.14-3.15-.27-6.29-.39-9.41-.12-3.12-.27-6.29-.46-9.42,0-.17-.02-.31-.05-.44-.03-.09-.04-.18-.04-.27-1.68-.29-3.37-.52-5.03-.7-1.68-.17-3.35-.33-4.98-.46.01.11.02.21.02.32.48,3.59.83,7.26,1.04,10.84.21,3.57.4,7.28.54,11.03v4.05c-.05,1.94-.11,3.85-.18,5.74-.07,1.94-.48,3.88-1.22,5.74-.32.6-.64,1.12-.99,1.62-.38.54-.87.98-1.47,1.3-.83.49-1.7.9-2.59,1.22-.92.33-1.91.48-2.93.43h0c-1.58,0-3.19-.39-4.76-1.17-1.61-.79-2.8-2.03-3.51-3.67-.7-1.74-1.08-3.55-1.16-5.4-.07-1.8-.16-3.61-.25-5.43,0-1.48.02-2.93.07-4.33.05-1.41.14-2.86.29-4.32.33-3.17.67-6.3,1.01-9.4.33-3.1.67-6.23,1.01-9.39l.14-.76c-1.98.69-3.96,1.39-5.92,2.11-2.03.73-4.09,1.54-6.14,2.4Z"/><path class="cls-1" d="M228.43,50.92c-.05-3.41.07-6.83.36-10.26.29-3.43.65-6.98,1.08-10.66.43-3.67.89-7.51,1.37-11.52.48-4.01.86-8.32,1.15-12.92,1.82-.72,3.65-1.44,5.47-2.16,1.82-.72,3.67-1.42,5.54-2.09.1.38.14.6.14.65v.65c.72,2.88,1.61,5.66,2.66,8.35,1.05,2.69,2.16,5.4,3.31,8.14,1.25,2.74,2.5,5.42,3.74,8.06,1.25,2.64,2.62,5.26,4.1,7.85.05-.24.12-.44.22-.61.1-.17.19-.35.29-.54.96-2.5,1.93-4.99,2.92-7.49.98-2.5,1.88-5.04,2.7-7.63.82-2.45,1.58-4.92,2.3-7.42.72-2.5,1.05-5.06,1.01-7.7,1.78-.24,3.55-.47,5.33-.68,1.78-.22,3.55-.4,5.33-.54l.14.86c1.58,8.02,2.98,15.91,4.18,23.69,1.2,7.78,1.99,15.74,2.38,23.9v.79c-2.02.19-3.97.37-5.87.54-1.9.17-3.85.35-5.87.54.53-4.22.58-8.4.14-12.53-.43-4.13-1.03-8.3-1.8-12.53-.05-.14-.1-.31-.14-.5-.05-.19-.1-.38-.14-.58l-.29.72c-3.5,8.26-6.65,16.58-9.43,24.98-.05.14-.08.3-.11.47-.02.17-.06.32-.11.47h-8.28c-.05-.14-.1-.29-.14-.43s-.1-.29-.14-.43c-.67-2.45-1.52-4.82-2.56-7.13-1.03-2.3-2.03-4.63-2.99-6.98-.82-2.02-1.64-3.98-2.48-5.9-.84-1.92-1.72-3.84-2.63-5.76l-.58-.86v.36l-.07.79c-.24,1.92-.47,3.8-.68,5.65-.22,1.85-.44,3.73-.68,5.65-.24,2.16-.37,4.31-.4,6.44-.02,2.14.08,4.28.32,6.44.05.29.1.56.14.83s.1.54.14.83c-1.83-.14-3.67-.31-5.54-.5-1.87-.19-3.72-.38-5.54-.58v-.72Z"/><path class="cls-2" d="M260.91,53.72h-9l-.41-1.21c-.67-2.44-1.52-4.81-2.54-7.08-1.03-2.3-2.04-4.66-3-7-.82-2.03-1.66-4.01-2.48-5.89-.75-1.71-1.54-3.46-2.37-5.22-.22,1.79-.43,3.54-.63,5.25-.22,1.85-.45,3.74-.68,5.66-.24,2.12-.37,4.27-.39,6.39-.02,2.1.08,4.25.32,6.38.04.26.09.53.14.79.05.27.1.54.15.83l.11.63-.64-.05c-1.83-.14-3.68-.31-5.56-.5-1.87-.19-3.72-.39-5.54-.58l-.45-.05v-1.17c-.05-3.39.07-6.86.36-10.3.29-3.41.65-7,1.08-10.67.43-3.67.89-7.51,1.37-11.52.48-3.99.86-8.33,1.15-12.9l.02-.32,5.77-2.28c1.81-.71,3.68-1.42,5.56-2.09l.52-.19.13.54c.15.61.16.69.16.77v.59c.71,2.83,1.59,5.6,2.63,8.23,1.04,2.64,2.15,5.38,3.31,8.13,1.24,2.72,2.49,5.41,3.74,8.04,1.1,2.32,2.3,4.65,3.58,6.93.04-.08.08-.16.13-.25.94-2.45,1.91-4.95,2.9-7.45.97-2.48,1.88-5.03,2.69-7.6.81-2.43,1.58-4.91,2.3-7.4.7-2.43,1.03-4.98.99-7.56v-.44s.43-.06.43-.06c1.78-.24,3.56-.47,5.33-.69,1.78-.22,3.58-.4,5.35-.54l.46-.04.22,1.32c1.57,7.97,2.98,15.94,4.18,23.69,1.2,7.76,2,15.82,2.38,23.96v1.27s-.45.04-.45.04c-2.02.19-3.97.37-5.87.54-1.9.17-3.85.35-5.86.54l-.62.06.08-.62c.52-4.17.57-8.34.14-12.41-.41-3.94-.99-7.99-1.71-12.04-3.37,7.99-6.44,16.15-9.12,24.25-.04.12-.07.24-.09.38-.03.2-.07.38-.13.55l-.11.35ZM252.62,52.72h7.53s0-.03,0-.04c.03-.2.07-.38.13-.56,2.77-8.36,5.95-16.78,9.45-25.02l.86-2.16.51,2.09c.04.18.09.33.13.46.79,4.3,1.39,8.52,1.82,12.64.41,3.95.39,7.99-.07,12.02,1.8-.17,3.55-.33,5.25-.48,1.75-.16,3.56-.32,5.41-.5v-.34c-.38-8.08-1.18-16.11-2.37-23.83-1.19-7.74-2.6-15.7-4.17-23.67l-.07-.42c-1.61.14-3.24.3-4.85.5-1.63.2-3.26.41-4.88.62,0,2.53-.34,5.02-1.03,7.41-.72,2.5-1.5,5-2.31,7.44-.81,2.58-1.72,5.16-2.71,7.66-.98,2.5-1.96,4.99-2.91,7.48-.12.25-.22.43-.32.61-.07.12-.12.28-.16.46l-.26,1.31-.66-1.16c-1.49-2.59-2.87-5.24-4.12-7.88-1.25-2.64-2.5-5.33-3.75-8.07-1.17-2.77-2.28-5.51-3.32-8.16-1.06-2.69-1.96-5.52-2.68-8.41v-.12s-.01-.64-.01-.64c-1.7.61-3.38,1.25-5,1.89l-5.18,2.04c-.28,4.47-.67,8.72-1.13,12.64-.48,4.01-.94,7.85-1.37,11.52-.43,3.66-.79,7.24-1.08,10.64-.29,3.41-.41,6.85-.36,10.21v.28c1.68.18,3.38.35,5.09.53,1.65.17,3.28.32,4.89.45l-.03-.19c-.05-.27-.1-.55-.14-.84-.25-2.2-.36-4.39-.33-6.53.02-2.15.16-4.33.4-6.49.24-1.92.47-3.81.68-5.65.22-1.85.44-3.73.69-5.66l.07-.77v-1.97s1.49,2.24,1.49,2.24c.96,2,1.84,3.94,2.67,5.84s1.67,3.88,2.49,5.92c.95,2.33,1.95,4.68,2.98,6.97,1.04,2.32,1.91,4.74,2.58,7.2l.17.5Z"/></svg>